<?xml version="1.0" encoding="UTF-8"?>
<svg id="Layer_2" data-name="Layer 2" xmlns="http://www.w3.org/2000/svg" viewBox="0 0 766.13 796.2">
  <defs>
    <style>
      .cls-1 {
        fill: #fff;
      }
    </style>
  </defs>
  <g id="Layer_2-2" data-name="Layer 2">
    <path class="cls-1" d="M638.69,694.37c-.3-2.16-.12-1.65,1.29-2.28,4.87-2.18,11.28-3.12,16.35-6.04,9.12-5.25,15.76-14.73,13.81-25.68-25.27-79.93-51.92-159.51-78.83-238.89-8.99,4.5-17.52,9.74-26.58,14.14-2.67,1.3-13.42,4.72-14.36,5.49-1.5,1.21-18.36,31.89-18.63,33.8l.29,190.2c5.72,20.27,29.93,20.13,45.31,26.98,1.39.62,1.59.12,1.29,2.27l-121.14-.51,15.63-6.75c10.64-5.53,24.06-9.8,26.67-23.22.17-45.57,1.75-91.59-.56-137.01-.06-1.15.66-2.8-1.01-2.52-21.42,31.4-42.03,64.4-68.2,92.16-53.59,56.86-133.36,107.06-214.47,87.16-73.43-18.02-103.99-63.53-109.31-136.07-.11-1.52.79-2.95-1.51-2.52-41.86,31.35-78.03,75.32-90.84,127.04-6.13,24.74-7.87,59.73,1.01,83.94,2.73,7.44,9.27,12.77,10.91,20.13-2.16.29-3.31-1.73-4.49-3.14-9.47-11.28-17.39-33.06-19.64-47.55-12.07-77.55,43.63-154.68,105.07-195.7,9.44-126.03,154.68-232.36,276.78-215.7,33,4.5,73.22,22.96,94.3,49.26,6.97,8.7,13.34,25.73-.41,31.11-22.98,8.99-29.23-24.49-36.68-38.81-8.6-16.53-14.74-20.93-32.33-26.72-97.66-32.12-231.08,42.88-273.83,131.96-9.43,19.65-15.74,41.05-18.14,62.8,29.55-18.95,62.09-32.22,95.16-43.8,34.83-12.2,69.92-22.17,106.22-29.19,60.21-11.64,121.31-18.49,181.31-30.96V34.18c-3.13-13.44-11.37-18.01-23.06-22.74-4.62-1.87-21.66-6.37-24.06-8.32-1.17-.95-.54-1.91-.63-3.12l126.19.06c0,1.14.62,2.22-.55,3.07-3.11,2.28-18.51,6.04-23.82,8.58-5.54,2.65-21.4,12.63-21.4,19.33v382.32l65.75-100.71c20.67-27.13,67.07-74.99,104.82-62.23,35.48,11.99,13.97,52.31-.32,73.06-21.37,31.02-52.24,57.39-82.69,79.22l-1.01,1.94,85.61,249.41c11.13,23.98,37.3,34.04,62,37.28.86,1.7-1.74,3.05-2.55,3.05h-124.72ZM613.25,390.95c23.49-15.73,46.48-35.23,65.12-56.53,10.71-12.24,27.26-35.96,29.29-52.16,1.85-14.74-12.09-5.72-19.1-1.79-14.5,8.13-27.77,20.12-39.71,31.56l-45.31,49.39,9.72,29.54ZM560.31,422.52c4.31-4.28,23.51-10.3,26-14.27,1.72-2.74-5.55-15.1-4.64-19.33-9.25,9.59-15.7,21.63-21.36,33.6ZM499.21,456.12c-48.92,9.83-98.65,15.02-147.96,22.57-61.81,9.46-122.09,22.36-179.53,47.5-7.83,3.42-54.53,26.15-56.13,31.43-.54,50.75,19.81,97.79,68.05,118.9,84.27,36.87,161.75-24.81,216.33-82.93,36.9-39.3,68.71-82.62,98.7-127.33l.55-10.13Z"/>
  </g>
</svg>